<svg width="24" height="24" viewBox="0 0 24 24" fill="none" xmlns="http://www.w3.org/2000/svg">
<g id="Iconly/Light-outline/Bag">
<g id="Bag 2">
<path id="Bag 2_2" fill-rule="evenodd" clip-rule="evenodd" d="M16.518 6.06016C16.4068 3.66098 14.4269 1.75004 12.0009 1.75004C9.51522 1.73934 7.48716 3.73953 7.46112 6.22438H7.25778C4.49177 6.22438 2.25 8.46488 2.25 11.2294V16.7454C2.25 19.5099 4.49177 21.7504 7.25778 21.7504H16.7422C19.5082 21.7504 21.75 19.5099 21.75 16.7454V11.2294C21.75 8.46488 19.5082 6.22438 16.7422 6.22438H16.5218L16.518 6.06016ZM15.0229 7.72438V9.30508L15.0297 9.40685C15.0794 9.77293 15.3932 10.0551 15.7729 10.0551C16.1871 10.0551 16.5229 9.71929 16.5229 9.30508V7.72438H16.7422C18.68 7.72438 20.25 9.2935 20.25 11.2294V16.7454C20.25 18.6813 18.68 20.2504 16.7422 20.2504H7.25778C5.32 20.2504 3.75 18.6813 3.75 16.7454V11.2294C3.75 9.2935 5.32 7.72438 7.25778 7.72438H7.4609L7.4609 9.30508L7.46775 9.40685C7.51741 9.77293 7.8312 10.0551 8.2109 10.0551C8.62511 10.0551 8.9609 9.71929 8.9609 9.30508V7.72438H15.0229ZM15.0225 6.22438C14.9965 4.57717 13.6535 3.25004 11.9977 3.25004C10.3872 3.24311 9.0656 4.4954 8.9668 6.07883L8.96195 6.22438H15.0225Z" fill="#F7A500"/>
</g>
</g>
</svg>
