<svg width="12" height="12" viewBox="0 0 12 12" fill="none" xmlns="http://www.w3.org/2000/svg">
<path d="M6.77334 5.13125L7.56147 4.34311C7.16839 3.99153 6.64944 3.77778 6.08057 3.77778C4.85327 3.77778 3.85834 4.7727 3.85834 6C3.85834 7.2273 4.85327 8.22222 6.08057 8.22222C6.69794 8.22222 7.25652 7.97046 7.65922 7.56401L6.92998 6.83477L6.81366 6.83497C6.61802 7.00688 6.36147 7.11111 6.08057 7.11111C5.46692 7.11111 4.96946 6.61365 4.96946 6C4.96946 5.38635 5.46692 4.88889 6.08057 4.88889C6.34256 4.88889 6.58337 4.97957 6.77334 5.13125Z" fill="#7B7B7B"/>
<path fill-rule="evenodd" clip-rule="evenodd" d="M6 1C8.76142 1 11 3.23858 11 6C11 8.76142 8.76142 11 6 11C3.23858 11 1 8.76142 1 6C1 3.23858 3.23858 1 6 1ZM6 2C8.14777 2 10 3.85223 10 6C10 8.14777 8.14777 10 6 10C3.85223 10 2 8.14777 2 6C2 3.85223 3.85223 2 6 2Z" fill="#7B7B7B"/>
</svg>
