<svg width="20" height="20" viewBox="0 0 20 20" fill="none" xmlns="http://www.w3.org/2000/svg">
<rect width="20" height="20" rx="10" fill="white"/>
<path d="M14.8973 5.07691C14.5665 4.7728 13.2273 3.79911 10.2423 3.78577C10.2423 3.78577 6.72364 3.57236 5.00834 5.14627C4.05333 6.10129 3.7172 7.49647 3.68252 9.23043C3.64784 10.9617 3.60249 14.2083 6.73164 15.0886H6.73431L6.73164 16.4304C6.73164 16.4304 6.71297 16.9746 7.07043 17.084C7.50259 17.2174 7.75868 16.8039 8.17217 16.3584C8.39892 16.1129 8.71103 15.7555 8.94845 15.4807C11.0879 15.6595 12.7338 15.2486 12.9206 15.1873C13.3527 15.0459 15.799 14.7338 16.1964 11.4873C16.6073 8.14737 15.9964 6.03193 14.8973 5.07691ZM15.2601 11.2525C14.924 13.9628 12.9419 14.1336 12.5764 14.2509C12.4217 14.3016 10.9759 14.6618 9.15653 14.5417C9.15653 14.5417 7.80136 16.177 7.37988 16.6011C7.31319 16.6678 7.23582 16.6945 7.18514 16.6812C7.11311 16.6625 7.09177 16.5771 7.09444 16.4517C7.09444 16.2703 7.10511 14.2189 7.10511 14.2189C7.10244 14.2189 7.10244 14.2189 7.10511 14.2189C4.45614 13.4853 4.61086 10.7216 4.64021 9.27578C4.66955 7.82992 4.94165 6.64282 5.74995 5.84519C7.19848 4.53271 10.1889 4.72745 10.1889 4.72745C12.7125 4.73812 13.9209 5.4984 14.201 5.75183C15.132 6.55212 15.6069 8.45948 15.2601 11.2525Z" fill="#F7A500"/>
<path d="M11.472 9.32645C11.384 9.32645 11.3093 9.25709 11.3039 9.16639C11.2746 8.59285 11.0052 8.31275 10.4556 8.2834C10.3623 8.27807 10.2902 8.19804 10.2956 8.10467C10.3009 8.01131 10.3809 7.93928 10.4743 7.94461C11.1999 7.98463 11.6054 8.40078 11.6427 9.14772C11.6481 9.24109 11.576 9.32112 11.4827 9.32378C11.4773 9.32645 11.4747 9.32645 11.472 9.32645Z" fill="#F7A500"/>
<path d="M12.3364 9.61464H12.3337C12.2404 9.61197 12.1657 9.53461 12.1683 9.44124C12.1817 8.86503 12.0163 8.39819 11.6642 8.01405C11.3147 7.62991 10.8319 7.42184 10.1943 7.37649C10.1009 7.36848 10.0316 7.28845 10.0396 7.19509C10.0476 7.10172 10.1276 7.03236 10.221 7.04036C10.9412 7.09372 11.5094 7.34447 11.9149 7.7873C12.3231 8.2328 12.5205 8.79034 12.5071 9.44924C12.5045 9.54261 12.4271 9.61464 12.3364 9.61464Z" fill="#F7A500"/>
<path d="M13.222 9.96136C13.1286 9.96136 13.0539 9.88667 13.0539 9.7933C13.0459 8.76092 12.7498 7.97397 12.1469 7.38442C11.5521 6.80288 10.7971 6.50677 9.90878 6.49876C9.81542 6.49876 9.74072 6.4214 9.74072 6.32803C9.74072 6.23467 9.81808 6.15997 9.90878 6.15997C10.8878 6.16798 11.7201 6.4961 12.379 7.14167C13.0406 7.78723 13.3794 8.67823 13.3901 9.78797C13.3927 9.884 13.318 9.96136 13.222 9.96136C13.2247 9.96136 13.2247 9.96136 13.222 9.96136Z" fill="#F7A500"/>
<path d="M10.4957 11.4152C10.4957 11.4152 10.7332 11.4365 10.8612 11.2791L11.1093 10.967C11.2293 10.8123 11.5201 10.7136 11.8029 10.871C11.9603 10.959 12.2457 11.1351 12.4218 11.2658C12.6112 11.4045 12.9953 11.7246 12.998 11.7273C13.1821 11.882 13.2247 12.1088 13.0994 12.3515C13.0994 12.3515 13.0994 12.3542 13.0994 12.3569C12.9713 12.5836 12.7979 12.797 12.5818 12.9944C12.5792 12.9944 12.5792 12.9971 12.5765 12.9971C12.3978 13.1465 12.2217 13.2319 12.051 13.2505C12.0296 13.2559 12.0056 13.2559 11.9736 13.2559C11.8989 13.2559 11.8242 13.2452 11.7495 13.2212L11.7442 13.2132C11.4774 13.1385 11.0346 12.9517 10.2983 12.5436C9.81816 12.2795 9.42068 12.0101 9.08189 11.7406C8.90316 11.5993 8.72176 11.4419 8.53502 11.2551C8.52969 11.2498 8.52168 11.2418 8.51635 11.2365C8.51101 11.2311 8.50301 11.2231 8.49767 11.2178C8.49234 11.2124 8.48434 11.2044 8.479 11.1991C8.47366 11.1938 8.46566 11.1858 8.46033 11.1804C8.27626 10.9937 8.1162 10.8123 7.97482 10.6336C7.70538 10.2974 7.43595 9.8973 7.17186 9.41712C6.76371 8.67818 6.57697 8.23536 6.50228 7.97126L6.49427 7.96592C6.47027 7.89123 6.45959 7.81654 6.45959 7.74184C6.45959 7.70983 6.45959 7.68582 6.46493 7.66448C6.48627 7.49108 6.57164 7.31769 6.71836 7.13895C6.71836 7.13629 6.72102 7.13629 6.72102 7.13362C6.91843 6.91487 7.13184 6.74414 7.35859 6.6161C7.35859 6.6161 7.36126 6.6161 7.36393 6.6161C7.60401 6.49072 7.83076 6.5334 7.98815 6.71747C7.98815 6.71747 8.31094 7.10428 8.44966 7.29368C8.58037 7.47241 8.75644 7.75518 8.84447 7.91257C9.00186 8.19534 8.90316 8.48611 8.74843 8.60616L8.43632 8.85425C8.27893 8.9823 8.30027 9.21972 8.30027 9.21972C8.30027 9.21972 8.76177 10.975 10.4957 11.4152Z" fill="#F7A500"/>
</svg>
