<svg width="450" height="450" viewBox="0 0 450 450" fill="none" xmlns="http://www.w3.org/2000/svg">
<rect width="450" height="450" fill="#D9D9D9"/>
<path d="M138.666 191.936L129.807 216H127.557L137.225 190.406H138.789L138.666 191.936ZM146.717 216L137.84 191.936L137.717 190.406H139.281L148.967 216H146.717ZM145.135 206.965V208.828H131.547V206.965H145.135ZM154.609 189V216H152.518V189H154.609ZM162.695 189V216H160.604V189H162.695ZM170.781 196.98V216H168.689V196.98H170.781ZM168.32 191.479C168.32 191.08 168.443 190.746 168.689 190.477C168.947 190.195 169.299 190.055 169.744 190.055C170.189 190.055 170.541 190.195 170.799 190.477C171.068 190.746 171.203 191.08 171.203 191.479C171.203 191.865 171.068 192.199 170.799 192.48C170.541 192.75 170.189 192.885 169.744 192.885C169.299 192.885 168.947 192.75 168.689 192.48C168.443 192.199 168.32 191.865 168.32 191.479ZM188.096 212.59V202.781C188.096 201.879 187.908 201.1 187.533 200.443C187.158 199.787 186.607 199.283 185.881 198.932C185.154 198.58 184.258 198.404 183.191 198.404C182.207 198.404 181.328 198.58 180.555 198.932C179.793 199.271 179.189 199.734 178.744 200.32C178.311 200.895 178.094 201.533 178.094 202.236L175.984 202.219C175.984 201.504 176.16 200.812 176.512 200.145C176.863 199.477 177.361 198.879 178.006 198.352C178.65 197.824 179.418 197.408 180.309 197.104C181.211 196.787 182.201 196.629 183.279 196.629C184.639 196.629 185.834 196.857 186.865 197.314C187.908 197.771 188.723 198.457 189.309 199.371C189.895 200.285 190.188 201.434 190.188 202.816V212.01C190.188 212.666 190.234 213.346 190.328 214.049C190.434 214.752 190.58 215.332 190.768 215.789V216H188.535C188.395 215.578 188.283 215.051 188.201 214.418C188.131 213.773 188.096 213.164 188.096 212.59ZM188.588 204.926L188.623 206.543H184.492C183.414 206.543 182.447 206.643 181.592 206.842C180.748 207.029 180.033 207.311 179.447 207.686C178.861 208.049 178.41 208.488 178.094 209.004C177.789 209.52 177.637 210.105 177.637 210.762C177.637 211.441 177.807 212.062 178.146 212.625C178.498 213.188 178.99 213.639 179.623 213.979C180.268 214.307 181.029 214.471 181.908 214.471C183.08 214.471 184.111 214.254 185.002 213.82C185.904 213.387 186.648 212.818 187.234 212.115C187.82 211.412 188.213 210.645 188.412 209.812L189.326 211.025C189.174 211.611 188.893 212.215 188.482 212.836C188.084 213.445 187.562 214.02 186.918 214.559C186.273 215.086 185.512 215.52 184.633 215.859C183.766 216.188 182.781 216.352 181.68 216.352C180.438 216.352 179.354 216.117 178.428 215.648C177.514 215.18 176.799 214.541 176.283 213.732C175.779 212.912 175.527 211.986 175.527 210.955C175.527 210.018 175.727 209.18 176.125 208.441C176.523 207.691 177.098 207.059 177.848 206.543C178.609 206.016 179.523 205.617 180.59 205.348C181.668 205.066 182.875 204.926 184.211 204.926H188.588ZM197.922 201.041V216H195.83V196.98H197.834L197.922 201.041ZM197.447 205.312L196.516 204.785C196.586 203.66 196.814 202.605 197.201 201.621C197.588 200.637 198.109 199.77 198.766 199.02C199.434 198.27 200.213 197.684 201.104 197.262C202.006 196.84 203.002 196.629 204.092 196.629C205.041 196.629 205.891 196.758 206.641 197.016C207.391 197.273 208.029 197.684 208.557 198.246C209.084 198.809 209.482 199.529 209.752 200.408C210.033 201.287 210.174 202.359 210.174 203.625V216H208.064V203.607C208.064 202.295 207.883 201.27 207.52 200.531C207.156 199.781 206.641 199.248 205.973 198.932C205.305 198.615 204.514 198.457 203.6 198.457C202.592 198.457 201.707 198.68 200.945 199.125C200.195 199.559 199.562 200.127 199.047 200.83C198.543 201.521 198.156 202.266 197.887 203.062C197.617 203.848 197.471 204.598 197.447 205.312ZM222.637 214.541C223.527 214.541 224.359 214.377 225.133 214.049C225.918 213.709 226.562 213.211 227.066 212.555C227.582 211.887 227.875 211.072 227.945 210.111H229.949C229.891 211.318 229.521 212.396 228.842 213.346C228.174 214.283 227.295 215.021 226.205 215.561C225.127 216.088 223.938 216.352 222.637 216.352C221.312 216.352 220.141 216.111 219.121 215.631C218.113 215.15 217.27 214.482 216.59 213.627C215.91 212.76 215.395 211.752 215.043 210.604C214.703 209.443 214.533 208.195 214.533 206.859V206.121C214.533 204.785 214.703 203.543 215.043 202.395C215.395 201.234 215.91 200.227 216.59 199.371C217.27 198.504 218.113 197.83 219.121 197.35C220.129 196.869 221.295 196.629 222.619 196.629C223.979 196.629 225.197 196.904 226.275 197.455C227.365 198.006 228.232 198.785 228.877 199.793C229.533 200.801 229.891 201.996 229.949 203.379H227.945C227.887 202.359 227.617 201.48 227.137 200.742C226.656 200.004 226.023 199.436 225.238 199.037C224.453 198.639 223.58 198.439 222.619 198.439C221.541 198.439 220.621 198.65 219.859 199.072C219.098 199.482 218.477 200.051 217.996 200.777C217.527 201.492 217.182 202.312 216.959 203.238C216.736 204.152 216.625 205.113 216.625 206.121V206.859C216.625 207.879 216.73 208.852 216.941 209.777C217.164 210.691 217.51 211.506 217.979 212.221C218.459 212.936 219.08 213.504 219.842 213.926C220.615 214.336 221.547 214.541 222.637 214.541ZM241.533 216.352C240.291 216.352 239.148 216.123 238.105 215.666C237.074 215.209 236.172 214.564 235.398 213.732C234.637 212.9 234.045 211.916 233.623 210.779C233.213 209.631 233.008 208.377 233.008 207.018V206.262C233.008 204.797 233.225 203.473 233.658 202.289C234.092 201.105 234.689 200.092 235.451 199.248C236.213 198.404 237.08 197.76 238.053 197.314C239.037 196.857 240.068 196.629 241.146 196.629C242.354 196.629 243.426 196.846 244.363 197.279C245.301 197.701 246.086 198.305 246.719 199.09C247.363 199.863 247.85 200.783 248.178 201.85C248.506 202.904 248.67 204.07 248.67 205.348V206.631H234.273V204.838H246.578V204.592C246.555 203.525 246.338 202.529 245.928 201.604C245.529 200.666 244.932 199.904 244.135 199.318C243.338 198.732 242.342 198.439 241.146 198.439C240.256 198.439 239.436 198.627 238.686 199.002C237.947 199.377 237.309 199.916 236.77 200.619C236.242 201.311 235.832 202.137 235.539 203.098C235.258 204.047 235.117 205.102 235.117 206.262V207.018C235.117 208.072 235.27 209.057 235.574 209.971C235.891 210.873 236.336 211.67 236.91 212.361C237.496 213.053 238.188 213.592 238.984 213.979C239.781 214.365 240.66 214.559 241.621 214.559C242.746 214.559 243.742 214.354 244.609 213.943C245.477 213.521 246.256 212.859 246.947 211.957L248.266 212.977C247.855 213.586 247.34 214.148 246.719 214.664C246.109 215.18 245.377 215.59 244.521 215.895C243.666 216.199 242.67 216.352 241.533 216.352ZM269.254 208.02H271.416C271.24 209.742 270.766 211.23 269.992 212.484C269.219 213.727 268.164 214.682 266.828 215.35C265.492 216.018 263.881 216.352 261.994 216.352C260.541 216.352 259.223 216.076 258.039 215.525C256.867 214.975 255.859 214.195 255.016 213.188C254.172 212.168 253.521 210.949 253.064 209.531C252.607 208.113 252.379 206.537 252.379 204.803V201.604C252.379 199.869 252.607 198.299 253.064 196.893C253.521 195.475 254.178 194.256 255.033 193.236C255.889 192.217 256.914 191.432 258.109 190.881C259.305 190.33 260.652 190.055 262.152 190.055C263.969 190.055 265.539 190.389 266.863 191.057C268.188 191.713 269.23 192.662 269.992 193.904C270.766 195.146 271.24 196.646 271.416 198.404H269.254C269.09 197.021 268.727 195.85 268.164 194.889C267.602 193.928 266.822 193.195 265.826 192.691C264.842 192.176 263.617 191.918 262.152 191.918C260.957 191.918 259.891 192.146 258.953 192.604C258.016 193.061 257.219 193.717 256.562 194.572C255.906 195.416 255.402 196.43 255.051 197.613C254.711 198.797 254.541 200.115 254.541 201.568V204.803C254.541 206.209 254.705 207.504 255.033 208.688C255.361 209.871 255.842 210.896 256.475 211.764C257.119 212.631 257.904 213.305 258.83 213.785C259.756 214.266 260.811 214.506 261.994 214.506C263.506 214.506 264.766 214.266 265.773 213.785C266.793 213.293 267.584 212.566 268.146 211.605C268.709 210.645 269.078 209.449 269.254 208.02ZM288.379 211.605V196.98H290.488V216H288.467L288.379 211.605ZM288.766 208.09L289.855 208.055C289.855 209.25 289.715 210.352 289.434 211.359C289.152 212.367 288.713 213.246 288.115 213.996C287.518 214.746 286.744 215.326 285.795 215.736C284.846 216.146 283.703 216.352 282.367 216.352C281.441 216.352 280.592 216.223 279.818 215.965C279.057 215.695 278.4 215.273 277.85 214.699C277.299 214.125 276.871 213.381 276.566 212.467C276.273 211.553 276.127 210.445 276.127 209.145V196.98H278.219V209.18C278.219 210.199 278.33 211.049 278.553 211.729C278.787 212.408 279.104 212.953 279.502 213.363C279.912 213.773 280.381 214.066 280.908 214.242C281.436 214.418 282.004 214.506 282.613 214.506C284.16 214.506 285.379 214.207 286.27 213.609C287.172 213.012 287.811 212.227 288.186 211.254C288.572 210.27 288.766 209.215 288.766 208.09ZM298.064 200.637V223.312H295.955V196.98H297.924L298.064 200.637ZM311.283 206.314V206.684C311.283 208.102 311.119 209.402 310.791 210.586C310.463 211.77 309.988 212.795 309.367 213.662C308.758 214.518 308.002 215.18 307.1 215.648C306.197 216.117 305.172 216.352 304.023 216.352C302.887 216.352 301.873 216.176 300.982 215.824C300.092 215.473 299.324 214.975 298.68 214.33C298.047 213.674 297.537 212.912 297.15 212.045C296.775 211.166 296.512 210.205 296.359 209.162V204.293C296.535 203.145 296.822 202.102 297.221 201.164C297.619 200.227 298.129 199.418 298.75 198.738C299.383 198.059 300.133 197.537 301 197.174C301.867 196.811 302.857 196.629 303.971 196.629C305.131 196.629 306.162 196.857 307.064 197.314C307.979 197.76 308.746 198.41 309.367 199.266C310 200.109 310.475 201.129 310.791 202.324C311.119 203.508 311.283 204.838 311.283 206.314ZM309.174 206.684V206.314C309.174 205.201 309.057 204.17 308.822 203.221C308.6 202.271 308.254 201.445 307.785 200.742C307.328 200.027 306.742 199.471 306.027 199.072C305.324 198.674 304.486 198.475 303.514 198.475C302.506 198.475 301.645 198.645 300.93 198.984C300.227 199.312 299.641 199.752 299.172 200.303C298.703 200.842 298.334 201.434 298.064 202.078C297.795 202.723 297.596 203.355 297.467 203.977V209.584C297.689 210.475 298.047 211.301 298.539 212.062C299.031 212.812 299.688 213.416 300.508 213.873C301.34 214.318 302.354 214.541 303.549 214.541C304.51 214.541 305.342 214.342 306.045 213.943C306.748 213.545 307.328 212.988 307.785 212.273C308.254 211.559 308.6 210.727 308.822 209.777C309.057 208.828 309.174 207.797 309.174 206.684ZM165.367 256.541C166.258 256.541 167.09 256.377 167.863 256.049C168.648 255.709 169.293 255.211 169.797 254.555C170.312 253.887 170.605 253.072 170.676 252.111H172.68C172.621 253.318 172.252 254.396 171.572 255.346C170.904 256.283 170.025 257.021 168.936 257.561C167.857 258.088 166.668 258.352 165.367 258.352C164.043 258.352 162.871 258.111 161.852 257.631C160.844 257.15 160 256.482 159.32 255.627C158.641 254.76 158.125 253.752 157.773 252.604C157.434 251.443 157.264 250.195 157.264 248.859V248.121C157.264 246.785 157.434 245.543 157.773 244.395C158.125 243.234 158.641 242.227 159.32 241.371C160 240.504 160.844 239.83 161.852 239.35C162.859 238.869 164.025 238.629 165.35 238.629C166.709 238.629 167.928 238.904 169.006 239.455C170.096 240.006 170.963 240.785 171.607 241.793C172.264 242.801 172.621 243.996 172.68 245.379H170.676C170.617 244.359 170.348 243.48 169.867 242.742C169.387 242.004 168.754 241.436 167.969 241.037C167.184 240.639 166.311 240.439 165.35 240.439C164.271 240.439 163.352 240.65 162.59 241.072C161.828 241.482 161.207 242.051 160.727 242.777C160.258 243.492 159.912 244.312 159.689 245.238C159.467 246.152 159.355 247.113 159.355 248.121V248.859C159.355 249.879 159.461 250.852 159.672 251.777C159.895 252.691 160.24 253.506 160.709 254.221C161.189 254.936 161.811 255.504 162.572 255.926C163.346 256.336 164.277 256.541 165.367 256.541ZM188.482 254.59V244.781C188.482 243.879 188.295 243.1 187.92 242.443C187.545 241.787 186.994 241.283 186.268 240.932C185.541 240.58 184.645 240.404 183.578 240.404C182.594 240.404 181.715 240.58 180.941 240.932C180.18 241.271 179.576 241.734 179.131 242.32C178.697 242.895 178.48 243.533 178.48 244.236L176.371 244.219C176.371 243.504 176.547 242.812 176.898 242.145C177.25 241.477 177.748 240.879 178.393 240.352C179.037 239.824 179.805 239.408 180.695 239.104C181.598 238.787 182.588 238.629 183.666 238.629C185.025 238.629 186.221 238.857 187.252 239.314C188.295 239.771 189.109 240.457 189.695 241.371C190.281 242.285 190.574 243.434 190.574 244.816V254.01C190.574 254.666 190.621 255.346 190.715 256.049C190.82 256.752 190.967 257.332 191.154 257.789V258H188.922C188.781 257.578 188.67 257.051 188.588 256.418C188.518 255.773 188.482 255.164 188.482 254.59ZM188.975 246.926L189.01 248.543H184.879C183.801 248.543 182.834 248.643 181.979 248.842C181.135 249.029 180.42 249.311 179.834 249.686C179.248 250.049 178.797 250.488 178.48 251.004C178.176 251.52 178.023 252.105 178.023 252.762C178.023 253.441 178.193 254.062 178.533 254.625C178.885 255.188 179.377 255.639 180.01 255.979C180.654 256.307 181.416 256.471 182.295 256.471C183.467 256.471 184.498 256.254 185.389 255.82C186.291 255.387 187.035 254.818 187.621 254.115C188.207 253.412 188.6 252.645 188.799 251.812L189.713 253.025C189.561 253.611 189.279 254.215 188.869 254.836C188.471 255.445 187.949 256.02 187.305 256.559C186.66 257.086 185.898 257.52 185.02 257.859C184.152 258.188 183.168 258.352 182.066 258.352C180.824 258.352 179.74 258.117 178.814 257.648C177.9 257.18 177.186 256.541 176.67 255.732C176.166 254.912 175.914 253.986 175.914 252.955C175.914 252.018 176.113 251.18 176.512 250.441C176.91 249.691 177.484 249.059 178.234 248.543C178.996 248.016 179.91 247.617 180.977 247.348C182.055 247.066 183.262 246.926 184.598 246.926H188.975ZM203.406 238.98V240.703H193.879V238.98H203.406ZM197.377 234.094H199.469V253.377C199.469 254.256 199.586 254.918 199.82 255.363C200.055 255.809 200.359 256.107 200.734 256.26C201.109 256.412 201.514 256.488 201.947 256.488C202.264 256.488 202.568 256.471 202.861 256.436C203.154 256.389 203.418 256.342 203.652 256.295L203.74 258.07C203.482 258.152 203.148 258.217 202.738 258.264C202.328 258.322 201.918 258.352 201.508 258.352C200.699 258.352 199.984 258.205 199.363 257.912C198.742 257.607 198.256 257.092 197.904 256.365C197.553 255.627 197.377 254.625 197.377 253.359V234.094ZM215.166 258.352C213.924 258.352 212.781 258.123 211.738 257.666C210.707 257.209 209.805 256.564 209.031 255.732C208.27 254.9 207.678 253.916 207.256 252.779C206.846 251.631 206.641 250.377 206.641 249.018V248.262C206.641 246.797 206.857 245.473 207.291 244.289C207.725 243.105 208.322 242.092 209.084 241.248C209.846 240.404 210.713 239.76 211.686 239.314C212.67 238.857 213.701 238.629 214.779 238.629C215.986 238.629 217.059 238.846 217.996 239.279C218.934 239.701 219.719 240.305 220.352 241.09C220.996 241.863 221.482 242.783 221.811 243.85C222.139 244.904 222.303 246.07 222.303 247.348V248.631H207.906V246.838H220.211V246.592C220.188 245.525 219.971 244.529 219.561 243.604C219.162 242.666 218.564 241.904 217.768 241.318C216.971 240.732 215.975 240.439 214.779 240.439C213.889 240.439 213.068 240.627 212.318 241.002C211.58 241.377 210.941 241.916 210.402 242.619C209.875 243.311 209.465 244.137 209.172 245.098C208.891 246.047 208.75 247.102 208.75 248.262V249.018C208.75 250.072 208.902 251.057 209.207 251.971C209.523 252.873 209.969 253.67 210.543 254.361C211.129 255.053 211.82 255.592 212.617 255.979C213.414 256.365 214.293 256.559 215.254 256.559C216.379 256.559 217.375 256.354 218.242 255.943C219.109 255.521 219.889 254.859 220.58 253.957L221.898 254.977C221.488 255.586 220.973 256.148 220.352 256.664C219.742 257.18 219.01 257.59 218.154 257.895C217.299 258.199 216.303 258.352 215.166 258.352ZM238.967 238.98H240.918V257.666C240.918 259.318 240.602 260.736 239.969 261.92C239.348 263.104 238.463 264.012 237.314 264.645C236.178 265.277 234.836 265.594 233.289 265.594C232.504 265.594 231.695 265.471 230.863 265.225C230.043 264.99 229.264 264.627 228.525 264.135C227.799 263.654 227.178 263.057 226.662 262.342L227.84 261.059C228.613 261.996 229.439 262.682 230.318 263.115C231.197 263.561 232.146 263.783 233.166 263.783C234.373 263.783 235.393 263.543 236.225 263.062C237.068 262.582 237.707 261.891 238.141 260.988C238.586 260.086 238.809 259.002 238.809 257.736V243.164L238.967 238.98ZM225.607 248.684V248.314C225.607 246.838 225.771 245.508 226.1 244.324C226.439 243.129 226.926 242.109 227.559 241.266C228.191 240.41 228.959 239.76 229.861 239.314C230.775 238.857 231.807 238.629 232.955 238.629C234.057 238.629 235.035 238.811 235.891 239.174C236.746 239.537 237.484 240.059 238.105 240.738C238.727 241.418 239.225 242.227 239.6 243.164C239.986 244.102 240.268 245.145 240.443 246.293V250.986C240.303 252.064 240.045 253.055 239.67 253.957C239.295 254.848 238.797 255.627 238.176 256.295C237.555 256.951 236.805 257.461 235.926 257.824C235.059 258.176 234.057 258.352 232.92 258.352C231.783 258.352 230.764 258.117 229.861 257.648C228.959 257.18 228.191 256.518 227.559 255.662C226.926 254.795 226.439 253.77 226.1 252.586C225.771 251.402 225.607 250.102 225.607 248.684ZM227.717 248.314V248.684C227.717 249.797 227.828 250.828 228.051 251.777C228.273 252.727 228.613 253.553 229.07 254.256C229.527 254.959 230.107 255.51 230.811 255.908C231.514 256.307 232.34 256.506 233.289 256.506C234.496 256.506 235.51 256.277 236.33 255.82C237.15 255.352 237.801 254.736 238.281 253.975C238.762 253.201 239.113 252.357 239.336 251.443V245.977C239.207 245.355 239.008 244.723 238.738 244.078C238.48 243.434 238.117 242.842 237.648 242.303C237.191 241.752 236.605 241.312 235.891 240.984C235.188 240.645 234.332 240.475 233.324 240.475C232.363 240.475 231.525 240.674 230.811 241.072C230.107 241.471 229.527 242.027 229.07 242.742C228.613 243.445 228.273 244.271 228.051 245.221C227.828 246.17 227.717 247.201 227.717 248.314ZM245.26 248.789V248.209C245.26 246.826 245.459 245.549 245.857 244.377C246.256 243.205 246.824 242.191 247.562 241.336C248.312 240.48 249.209 239.818 250.252 239.35C251.295 238.869 252.455 238.629 253.732 238.629C255.021 238.629 256.188 238.869 257.23 239.35C258.273 239.818 259.17 240.48 259.92 241.336C260.67 242.191 261.244 243.205 261.643 244.377C262.041 245.549 262.24 246.826 262.24 248.209V248.789C262.24 250.172 262.041 251.449 261.643 252.621C261.244 253.781 260.67 254.789 259.92 255.645C259.182 256.5 258.291 257.168 257.248 257.648C256.205 258.117 255.045 258.352 253.768 258.352C252.479 258.352 251.312 258.117 250.27 257.648C249.227 257.168 248.33 256.5 247.58 255.645C246.83 254.789 246.256 253.781 245.857 252.621C245.459 251.449 245.26 250.172 245.26 248.789ZM247.352 248.209V248.789C247.352 249.832 247.492 250.822 247.773 251.76C248.055 252.686 248.465 253.512 249.004 254.238C249.543 254.953 250.211 255.516 251.008 255.926C251.805 256.336 252.725 256.541 253.768 256.541C254.799 256.541 255.707 256.336 256.492 255.926C257.289 255.516 257.957 254.953 258.496 254.238C259.035 253.512 259.439 252.686 259.709 251.76C259.99 250.822 260.131 249.832 260.131 248.789V248.209C260.131 247.178 259.99 246.199 259.709 245.273C259.439 244.348 259.029 243.521 258.479 242.795C257.939 242.068 257.271 241.494 256.475 241.072C255.678 240.65 254.764 240.439 253.732 240.439C252.701 240.439 251.787 240.65 250.99 241.072C250.205 241.494 249.537 242.068 248.986 242.795C248.447 243.521 248.037 244.348 247.756 245.273C247.486 246.199 247.352 247.178 247.352 248.209ZM268.691 242.127V258H266.6V238.98H268.639L268.691 242.127ZM275.424 238.84L275.371 240.773C275.137 240.738 274.908 240.709 274.686 240.686C274.463 240.662 274.223 240.65 273.965 240.65C273.051 240.65 272.248 240.82 271.557 241.16C270.877 241.488 270.303 241.951 269.834 242.549C269.365 243.135 269.008 243.826 268.762 244.623C268.516 245.408 268.375 246.252 268.34 247.154L267.566 247.453C267.566 246.211 267.695 245.057 267.953 243.99C268.211 242.924 268.604 241.992 269.131 241.195C269.67 240.387 270.344 239.76 271.152 239.314C271.973 238.857 272.934 238.629 274.035 238.629C274.305 238.629 274.568 238.652 274.826 238.699C275.096 238.734 275.295 238.781 275.424 238.84ZM284.688 256.102L290.611 238.98H292.879L284.828 261.059C284.664 261.492 284.453 261.973 284.195 262.5C283.949 263.027 283.621 263.531 283.211 264.012C282.812 264.504 282.309 264.902 281.699 265.207C281.102 265.523 280.369 265.682 279.502 265.682C279.279 265.682 278.992 265.652 278.641 265.594C278.301 265.547 278.055 265.5 277.902 265.453L277.885 263.678C278.014 263.713 278.201 263.742 278.447 263.766C278.693 263.789 278.863 263.801 278.957 263.801C279.719 263.801 280.357 263.672 280.873 263.414C281.4 263.156 281.84 262.77 282.191 262.254C282.543 261.75 282.854 261.117 283.123 260.355L284.688 256.102ZM279.15 238.98L285.215 255.311L285.777 257.508L284.248 258.369L276.865 238.98H279.15Z" fill="black"/>
</svg>
