<svg width="450" height="450" viewBox="0 0 450 450" fill="none" xmlns="http://www.w3.org/2000/svg">
<rect width="450" height="450" fill="#D9D9D9"/>
<path d="M138.666 191.936L129.807 216H127.557L137.225 190.406H138.789L138.666 191.936ZM146.717 216L137.84 191.936L137.717 190.406H139.281L148.967 216H146.717ZM145.135 206.965V208.828H131.547V206.965H145.135ZM154.609 189V216H152.518V189H154.609ZM162.695 189V216H160.604V189H162.695ZM170.781 196.98V216H168.689V196.98H170.781ZM168.32 191.479C168.32 191.08 168.443 190.746 168.689 190.477C168.947 190.195 169.299 190.055 169.744 190.055C170.189 190.055 170.541 190.195 170.799 190.477C171.068 190.746 171.203 191.08 171.203 191.479C171.203 191.865 171.068 192.199 170.799 192.48C170.541 192.75 170.189 192.885 169.744 192.885C169.299 192.885 168.947 192.75 168.689 192.48C168.443 192.199 168.32 191.865 168.32 191.479ZM188.096 212.59V202.781C188.096 201.879 187.908 201.1 187.533 200.443C187.158 199.787 186.607 199.283 185.881 198.932C185.154 198.58 184.258 198.404 183.191 198.404C182.207 198.404 181.328 198.58 180.555 198.932C179.793 199.271 179.189 199.734 178.744 200.32C178.311 200.895 178.094 201.533 178.094 202.236L175.984 202.219C175.984 201.504 176.16 200.812 176.512 200.145C176.863 199.477 177.361 198.879 178.006 198.352C178.65 197.824 179.418 197.408 180.309 197.104C181.211 196.787 182.201 196.629 183.279 196.629C184.639 196.629 185.834 196.857 186.865 197.314C187.908 197.771 188.723 198.457 189.309 199.371C189.895 200.285 190.188 201.434 190.188 202.816V212.01C190.188 212.666 190.234 213.346 190.328 214.049C190.434 214.752 190.58 215.332 190.768 215.789V216H188.535C188.395 215.578 188.283 215.051 188.201 214.418C188.131 213.773 188.096 213.164 188.096 212.59ZM188.588 204.926L188.623 206.543H184.492C183.414 206.543 182.447 206.643 181.592 206.842C180.748 207.029 180.033 207.311 179.447 207.686C178.861 208.049 178.41 208.488 178.094 209.004C177.789 209.52 177.637 210.105 177.637 210.762C177.637 211.441 177.807 212.062 178.146 212.625C178.498 213.188 178.99 213.639 179.623 213.979C180.268 214.307 181.029 214.471 181.908 214.471C183.08 214.471 184.111 214.254 185.002 213.82C185.904 213.387 186.648 212.818 187.234 212.115C187.82 211.412 188.213 210.645 188.412 209.812L189.326 211.025C189.174 211.611 188.893 212.215 188.482 212.836C188.084 213.445 187.562 214.02 186.918 214.559C186.273 215.086 185.512 215.52 184.633 215.859C183.766 216.188 182.781 216.352 181.68 216.352C180.438 216.352 179.354 216.117 178.428 215.648C177.514 215.18 176.799 214.541 176.283 213.732C175.779 212.912 175.527 211.986 175.527 210.955C175.527 210.018 175.727 209.18 176.125 208.441C176.523 207.691 177.098 207.059 177.848 206.543C178.609 206.016 179.523 205.617 180.59 205.348C181.668 205.066 182.875 204.926 184.211 204.926H188.588ZM197.922 201.041V216H195.83V196.98H197.834L197.922 201.041ZM197.447 205.312L196.516 204.785C196.586 203.66 196.814 202.605 197.201 201.621C197.588 200.637 198.109 199.77 198.766 199.02C199.434 198.27 200.213 197.684 201.104 197.262C202.006 196.84 203.002 196.629 204.092 196.629C205.041 196.629 205.891 196.758 206.641 197.016C207.391 197.273 208.029 197.684 208.557 198.246C209.084 198.809 209.482 199.529 209.752 200.408C210.033 201.287 210.174 202.359 210.174 203.625V216H208.064V203.607C208.064 202.295 207.883 201.27 207.52 200.531C207.156 199.781 206.641 199.248 205.973 198.932C205.305 198.615 204.514 198.457 203.6 198.457C202.592 198.457 201.707 198.68 200.945 199.125C200.195 199.559 199.562 200.127 199.047 200.83C198.543 201.521 198.156 202.266 197.887 203.062C197.617 203.848 197.471 204.598 197.447 205.312ZM222.637 214.541C223.527 214.541 224.359 214.377 225.133 214.049C225.918 213.709 226.562 213.211 227.066 212.555C227.582 211.887 227.875 211.072 227.945 210.111H229.949C229.891 211.318 229.521 212.396 228.842 213.346C228.174 214.283 227.295 215.021 226.205 215.561C225.127 216.088 223.938 216.352 222.637 216.352C221.312 216.352 220.141 216.111 219.121 215.631C218.113 215.15 217.27 214.482 216.59 213.627C215.91 212.76 215.395 211.752 215.043 210.604C214.703 209.443 214.533 208.195 214.533 206.859V206.121C214.533 204.785 214.703 203.543 215.043 202.395C215.395 201.234 215.91 200.227 216.59 199.371C217.27 198.504 218.113 197.83 219.121 197.35C220.129 196.869 221.295 196.629 222.619 196.629C223.979 196.629 225.197 196.904 226.275 197.455C227.365 198.006 228.232 198.785 228.877 199.793C229.533 200.801 229.891 201.996 229.949 203.379H227.945C227.887 202.359 227.617 201.48 227.137 200.742C226.656 200.004 226.023 199.436 225.238 199.037C224.453 198.639 223.58 198.439 222.619 198.439C221.541 198.439 220.621 198.65 219.859 199.072C219.098 199.482 218.477 200.051 217.996 200.777C217.527 201.492 217.182 202.312 216.959 203.238C216.736 204.152 216.625 205.113 216.625 206.121V206.859C216.625 207.879 216.73 208.852 216.941 209.777C217.164 210.691 217.51 211.506 217.979 212.221C218.459 212.936 219.08 213.504 219.842 213.926C220.615 214.336 221.547 214.541 222.637 214.541ZM241.533 216.352C240.291 216.352 239.148 216.123 238.105 215.666C237.074 215.209 236.172 214.564 235.398 213.732C234.637 212.9 234.045 211.916 233.623 210.779C233.213 209.631 233.008 208.377 233.008 207.018V206.262C233.008 204.797 233.225 203.473 233.658 202.289C234.092 201.105 234.689 200.092 235.451 199.248C236.213 198.404 237.08 197.76 238.053 197.314C239.037 196.857 240.068 196.629 241.146 196.629C242.354 196.629 243.426 196.846 244.363 197.279C245.301 197.701 246.086 198.305 246.719 199.09C247.363 199.863 247.85 200.783 248.178 201.85C248.506 202.904 248.67 204.07 248.67 205.348V206.631H234.273V204.838H246.578V204.592C246.555 203.525 246.338 202.529 245.928 201.604C245.529 200.666 244.932 199.904 244.135 199.318C243.338 198.732 242.342 198.439 241.146 198.439C240.256 198.439 239.436 198.627 238.686 199.002C237.947 199.377 237.309 199.916 236.77 200.619C236.242 201.311 235.832 202.137 235.539 203.098C235.258 204.047 235.117 205.102 235.117 206.262V207.018C235.117 208.072 235.27 209.057 235.574 209.971C235.891 210.873 236.336 211.67 236.91 212.361C237.496 213.053 238.188 213.592 238.984 213.979C239.781 214.365 240.66 214.559 241.621 214.559C242.746 214.559 243.742 214.354 244.609 213.943C245.477 213.521 246.256 212.859 246.947 211.957L248.266 212.977C247.855 213.586 247.34 214.148 246.719 214.664C246.109 215.18 245.377 215.59 244.521 215.895C243.666 216.199 242.67 216.352 241.533 216.352ZM269.254 208.02H271.416C271.24 209.742 270.766 211.23 269.992 212.484C269.219 213.727 268.164 214.682 266.828 215.35C265.492 216.018 263.881 216.352 261.994 216.352C260.541 216.352 259.223 216.076 258.039 215.525C256.867 214.975 255.859 214.195 255.016 213.188C254.172 212.168 253.521 210.949 253.064 209.531C252.607 208.113 252.379 206.537 252.379 204.803V201.604C252.379 199.869 252.607 198.299 253.064 196.893C253.521 195.475 254.178 194.256 255.033 193.236C255.889 192.217 256.914 191.432 258.109 190.881C259.305 190.33 260.652 190.055 262.152 190.055C263.969 190.055 265.539 190.389 266.863 191.057C268.188 191.713 269.23 192.662 269.992 193.904C270.766 195.146 271.24 196.646 271.416 198.404H269.254C269.09 197.021 268.727 195.85 268.164 194.889C267.602 193.928 266.822 193.195 265.826 192.691C264.842 192.176 263.617 191.918 262.152 191.918C260.957 191.918 259.891 192.146 258.953 192.604C258.016 193.061 257.219 193.717 256.562 194.572C255.906 195.416 255.402 196.43 255.051 197.613C254.711 198.797 254.541 200.115 254.541 201.568V204.803C254.541 206.209 254.705 207.504 255.033 208.688C255.361 209.871 255.842 210.896 256.475 211.764C257.119 212.631 257.904 213.305 258.83 213.785C259.756 214.266 260.811 214.506 261.994 214.506C263.506 214.506 264.766 214.266 265.773 213.785C266.793 213.293 267.584 212.566 268.146 211.605C268.709 210.645 269.078 209.449 269.254 208.02ZM288.379 211.605V196.98H290.488V216H288.467L288.379 211.605ZM288.766 208.09L289.855 208.055C289.855 209.25 289.715 210.352 289.434 211.359C289.152 212.367 288.713 213.246 288.115 213.996C287.518 214.746 286.744 215.326 285.795 215.736C284.846 216.146 283.703 216.352 282.367 216.352C281.441 216.352 280.592 216.223 279.818 215.965C279.057 215.695 278.4 215.273 277.85 214.699C277.299 214.125 276.871 213.381 276.566 212.467C276.273 211.553 276.127 210.445 276.127 209.145V196.98H278.219V209.18C278.219 210.199 278.33 211.049 278.553 211.729C278.787 212.408 279.104 212.953 279.502 213.363C279.912 213.773 280.381 214.066 280.908 214.242C281.436 214.418 282.004 214.506 282.613 214.506C284.16 214.506 285.379 214.207 286.27 213.609C287.172 213.012 287.811 212.227 288.186 211.254C288.572 210.27 288.766 209.215 288.766 208.09ZM298.064 200.637V223.312H295.955V196.98H297.924L298.064 200.637ZM311.283 206.314V206.684C311.283 208.102 311.119 209.402 310.791 210.586C310.463 211.77 309.988 212.795 309.367 213.662C308.758 214.518 308.002 215.18 307.1 215.648C306.197 216.117 305.172 216.352 304.023 216.352C302.887 216.352 301.873 216.176 300.982 215.824C300.092 215.473 299.324 214.975 298.68 214.33C298.047 213.674 297.537 212.912 297.15 212.045C296.775 211.166 296.512 210.205 296.359 209.162V204.293C296.535 203.145 296.822 202.102 297.221 201.164C297.619 200.227 298.129 199.418 298.75 198.738C299.383 198.059 300.133 197.537 301 197.174C301.867 196.811 302.857 196.629 303.971 196.629C305.131 196.629 306.162 196.857 307.064 197.314C307.979 197.76 308.746 198.41 309.367 199.266C310 200.109 310.475 201.129 310.791 202.324C311.119 203.508 311.283 204.838 311.283 206.314ZM309.174 206.684V206.314C309.174 205.201 309.057 204.17 308.822 203.221C308.6 202.271 308.254 201.445 307.785 200.742C307.328 200.027 306.742 199.471 306.027 199.072C305.324 198.674 304.486 198.475 303.514 198.475C302.506 198.475 301.645 198.645 300.93 198.984C300.227 199.312 299.641 199.752 299.172 200.303C298.703 200.842 298.334 201.434 298.064 202.078C297.795 202.723 297.596 203.355 297.467 203.977V209.584C297.689 210.475 298.047 211.301 298.539 212.062C299.031 212.812 299.688 213.416 300.508 213.873C301.34 214.318 302.354 214.541 303.549 214.541C304.51 214.541 305.342 214.342 306.045 213.943C306.748 213.545 307.328 212.988 307.785 212.273C308.254 211.559 308.6 210.727 308.822 209.777C309.057 208.828 309.174 207.797 309.174 206.684ZM168.391 242.637V265.312H166.281V238.98H168.25L168.391 242.637ZM181.609 248.314V248.684C181.609 250.102 181.445 251.402 181.117 252.586C180.789 253.77 180.314 254.795 179.693 255.662C179.084 256.518 178.328 257.18 177.426 257.648C176.523 258.117 175.498 258.352 174.35 258.352C173.213 258.352 172.199 258.176 171.309 257.824C170.418 257.473 169.65 256.975 169.006 256.33C168.373 255.674 167.863 254.912 167.477 254.045C167.102 253.166 166.838 252.205 166.686 251.162V246.293C166.861 245.145 167.148 244.102 167.547 243.164C167.945 242.227 168.455 241.418 169.076 240.738C169.709 240.059 170.459 239.537 171.326 239.174C172.193 238.811 173.184 238.629 174.297 238.629C175.457 238.629 176.488 238.857 177.391 239.314C178.305 239.76 179.072 240.41 179.693 241.266C180.326 242.109 180.801 243.129 181.117 244.324C181.445 245.508 181.609 246.838 181.609 248.314ZM179.5 248.684V248.314C179.5 247.201 179.383 246.17 179.148 245.221C178.926 244.271 178.58 243.445 178.111 242.742C177.654 242.027 177.068 241.471 176.354 241.072C175.65 240.674 174.812 240.475 173.84 240.475C172.832 240.475 171.971 240.645 171.256 240.984C170.553 241.312 169.967 241.752 169.498 242.303C169.029 242.842 168.66 243.434 168.391 244.078C168.121 244.723 167.922 245.355 167.793 245.977V251.584C168.016 252.475 168.373 253.301 168.865 254.062C169.357 254.812 170.014 255.416 170.834 255.873C171.666 256.318 172.68 256.541 173.875 256.541C174.836 256.541 175.668 256.342 176.371 255.943C177.074 255.545 177.654 254.988 178.111 254.273C178.58 253.559 178.926 252.727 179.148 251.777C179.383 250.828 179.5 249.797 179.5 248.684ZM188.377 242.127V258H186.285V238.98H188.324L188.377 242.127ZM195.109 238.84L195.057 240.773C194.822 240.738 194.594 240.709 194.371 240.686C194.148 240.662 193.908 240.65 193.65 240.65C192.736 240.65 191.934 240.82 191.242 241.16C190.562 241.488 189.988 241.951 189.52 242.549C189.051 243.135 188.693 243.826 188.447 244.623C188.201 245.408 188.061 246.252 188.025 247.154L187.252 247.453C187.252 246.211 187.381 245.057 187.639 243.99C187.896 242.924 188.289 241.992 188.816 241.195C189.355 240.387 190.029 239.76 190.838 239.314C191.658 238.857 192.619 238.629 193.721 238.629C193.99 238.629 194.254 238.652 194.512 238.699C194.781 238.734 194.98 238.781 195.109 238.84ZM196.902 248.789V248.209C196.902 246.826 197.102 245.549 197.5 244.377C197.898 243.205 198.467 242.191 199.205 241.336C199.955 240.48 200.852 239.818 201.895 239.35C202.938 238.869 204.098 238.629 205.375 238.629C206.664 238.629 207.83 238.869 208.873 239.35C209.916 239.818 210.812 240.48 211.562 241.336C212.312 242.191 212.887 243.205 213.285 244.377C213.684 245.549 213.883 246.826 213.883 248.209V248.789C213.883 250.172 213.684 251.449 213.285 252.621C212.887 253.781 212.312 254.789 211.562 255.645C210.824 256.5 209.934 257.168 208.891 257.648C207.848 258.117 206.688 258.352 205.41 258.352C204.121 258.352 202.955 258.117 201.912 257.648C200.869 257.168 199.973 256.5 199.223 255.645C198.473 254.789 197.898 253.781 197.5 252.621C197.102 251.449 196.902 250.172 196.902 248.789ZM198.994 248.209V248.789C198.994 249.832 199.135 250.822 199.416 251.76C199.697 252.686 200.107 253.512 200.646 254.238C201.186 254.953 201.854 255.516 202.65 255.926C203.447 256.336 204.367 256.541 205.41 256.541C206.441 256.541 207.35 256.336 208.135 255.926C208.932 255.516 209.6 254.953 210.139 254.238C210.678 253.512 211.082 252.686 211.352 251.76C211.633 250.822 211.773 249.832 211.773 248.789V248.209C211.773 247.178 211.633 246.199 211.352 245.273C211.082 244.348 210.672 243.521 210.121 242.795C209.582 242.068 208.914 241.494 208.117 241.072C207.32 240.65 206.406 240.439 205.375 240.439C204.344 240.439 203.43 240.65 202.633 241.072C201.848 241.494 201.18 242.068 200.629 242.795C200.09 243.521 199.68 244.348 199.398 245.273C199.129 246.199 198.994 247.178 198.994 248.209ZM230.6 254.309V231H232.709V258H230.74L230.6 254.309ZM217.398 248.684V248.314C217.398 246.838 217.568 245.508 217.908 244.324C218.248 243.129 218.734 242.109 219.367 241.266C220.012 240.41 220.785 239.76 221.688 239.314C222.59 238.857 223.609 238.629 224.746 238.629C225.859 238.629 226.844 238.811 227.699 239.174C228.555 239.537 229.287 240.059 229.896 240.738C230.518 241.418 231.016 242.227 231.391 243.164C231.777 244.102 232.059 245.145 232.234 246.293V250.986C232.094 252.064 231.836 253.055 231.461 253.957C231.086 254.848 230.588 255.627 229.967 256.295C229.346 256.951 228.596 257.461 227.717 257.824C226.85 258.176 225.848 258.352 224.711 258.352C223.586 258.352 222.572 258.117 221.67 257.648C220.768 257.18 220 256.518 219.367 255.662C218.734 254.795 218.248 253.77 217.908 252.586C217.568 251.402 217.398 250.102 217.398 248.684ZM219.508 248.314V248.684C219.508 249.797 219.619 250.828 219.842 251.777C220.064 252.727 220.404 253.553 220.861 254.256C221.318 254.959 221.898 255.51 222.602 255.908C223.305 256.307 224.137 256.506 225.098 256.506C226.305 256.506 227.318 256.277 228.139 255.82C228.959 255.352 229.615 254.736 230.107 253.975C230.6 253.201 230.957 252.357 231.18 251.443V245.977C231.039 245.355 230.834 244.723 230.564 244.078C230.295 243.434 229.926 242.842 229.457 242.303C229 241.752 228.414 241.312 227.699 240.984C226.996 240.645 226.141 240.475 225.133 240.475C224.16 240.475 223.322 240.674 222.619 241.072C221.916 241.471 221.33 242.027 220.861 242.742C220.404 243.445 220.064 244.271 219.842 245.221C219.619 246.17 219.508 247.201 219.508 248.314ZM250.428 253.605V238.98H252.537V258H250.516L250.428 253.605ZM250.814 250.09L251.904 250.055C251.904 251.25 251.764 252.352 251.482 253.359C251.201 254.367 250.762 255.246 250.164 255.996C249.566 256.746 248.793 257.326 247.844 257.736C246.895 258.146 245.752 258.352 244.416 258.352C243.49 258.352 242.641 258.223 241.867 257.965C241.105 257.695 240.449 257.273 239.898 256.699C239.348 256.125 238.92 255.381 238.615 254.467C238.322 253.553 238.176 252.445 238.176 251.145V238.98H240.268V251.18C240.268 252.199 240.379 253.049 240.602 253.729C240.836 254.408 241.152 254.953 241.551 255.363C241.961 255.773 242.43 256.066 242.957 256.242C243.484 256.418 244.053 256.506 244.662 256.506C246.209 256.506 247.428 256.207 248.318 255.609C249.221 255.012 249.859 254.227 250.234 253.254C250.621 252.27 250.814 251.215 250.814 250.09ZM265.053 256.541C265.943 256.541 266.775 256.377 267.549 256.049C268.334 255.709 268.979 255.211 269.482 254.555C269.998 253.887 270.291 253.072 270.361 252.111H272.365C272.307 253.318 271.938 254.396 271.258 255.346C270.59 256.283 269.711 257.021 268.621 257.561C267.543 258.088 266.354 258.352 265.053 258.352C263.729 258.352 262.557 258.111 261.537 257.631C260.529 257.15 259.686 256.482 259.006 255.627C258.326 254.76 257.811 253.752 257.459 252.604C257.119 251.443 256.949 250.195 256.949 248.859V248.121C256.949 246.785 257.119 245.543 257.459 244.395C257.811 243.234 258.326 242.227 259.006 241.371C259.686 240.504 260.529 239.83 261.537 239.35C262.545 238.869 263.711 238.629 265.035 238.629C266.395 238.629 267.613 238.904 268.691 239.455C269.781 240.006 270.648 240.785 271.293 241.793C271.949 242.801 272.307 243.996 272.365 245.379H270.361C270.303 244.359 270.033 243.48 269.553 242.742C269.072 242.004 268.439 241.436 267.654 241.037C266.869 240.639 265.996 240.439 265.035 240.439C263.957 240.439 263.037 240.65 262.275 241.072C261.514 241.482 260.893 242.051 260.412 242.777C259.943 243.492 259.598 244.312 259.375 245.238C259.152 246.152 259.041 247.113 259.041 248.121V248.859C259.041 249.879 259.146 250.852 259.357 251.777C259.58 252.691 259.926 253.506 260.395 254.221C260.875 254.936 261.496 255.504 262.258 255.926C263.031 256.336 263.963 256.541 265.053 256.541ZM283.791 238.98V240.703H274.264V238.98H283.791ZM277.762 234.094H279.854V253.377C279.854 254.256 279.971 254.918 280.205 255.363C280.439 255.809 280.744 256.107 281.119 256.26C281.494 256.412 281.898 256.488 282.332 256.488C282.648 256.488 282.953 256.471 283.246 256.436C283.539 256.389 283.803 256.342 284.037 256.295L284.125 258.07C283.867 258.152 283.533 258.217 283.123 258.264C282.713 258.322 282.303 258.352 281.893 258.352C281.084 258.352 280.369 258.205 279.748 257.912C279.127 257.607 278.641 257.092 278.289 256.365C277.938 255.627 277.762 254.625 277.762 253.359V234.094Z" fill="black"/>
</svg>
